Coordinates
version=1
nRows=27
nColumns=12
inDegrees=yes

Units are S.I. units (second, meters, Newtons, ...)
Angles are in degrees

endheader
time	SC_y	SC_z	SC_x	AC_y	AC_z	AC_x	GH_y	GH_z	GH_yy	EL_x	PS_y
       0.0              -28.63           15.6          73.53          38.34         0.6206          1.922          52.49         -5.052         -8.034          37.22          90.27
   0.03953              -28.63           15.6          73.53          38.34         0.6198          1.924          52.48         -5.039         -8.026          37.23          90.28
   0.07905              -28.63          15.61          73.52          38.34         0.6189          1.926          52.47         -5.024         -8.018          37.23          90.28
    0.1186              -28.63          15.61          73.51          38.34          0.618          1.928          52.46         -5.009         -8.009          37.23          90.29
    0.1581              -28.63          15.61          73.49          38.35          0.617          1.931          52.45         -4.992         -7.999          37.23          90.29
    0.1976              -28.63          15.62          73.48          38.35         0.6159          1.933          52.44         -4.974         -7.989          37.23           90.3
    0.2372              -28.63          15.62          73.47          38.35         0.6148          1.936          52.43         -4.956         -7.978          37.23          90.31
    0.2767              -28.63          15.62          73.46          38.35         0.6136          1.939          52.41         -4.936         -7.966          37.23          90.31
    0.3162              -28.63          15.63          73.44          38.36         0.6123          1.942           52.4         -4.914         -7.954          37.23          90.32
    0.3557              -28.64          15.63          73.43          38.36         0.6109          1.946          52.38         -4.891          -7.94          37.23          90.33
    0.3953              -28.64          15.64          73.41          38.36         0.6095          1.949          52.37         -4.866         -7.926          37.23          90.34
    0.4348              -28.64          15.64          73.39          38.36         0.6079          1.953          52.35          -4.84          -7.91          37.23          90.35
    0.4743              -28.64          15.65          73.37          38.37         0.6062          1.958          52.33         -4.811         -7.894          37.23          90.36
    0.5138              -28.64          15.65          73.35          38.37         0.6043          1.962          52.31          -4.78         -7.876          37.24          90.37
    0.5534              -28.64          15.66          73.33          38.38         0.6023          1.967          52.29         -4.746         -7.856          37.24          90.38
    0.5929              -28.64          15.67          73.31          38.38         0.6001          1.973          52.27          -4.71         -7.835          37.24          90.39
    0.6324              -28.64          15.68          73.28          38.39         0.5977          1.978          52.24          -4.67         -7.812          37.24           90.4
    0.6719              -28.64          15.69          73.25          38.39         0.5952          1.985          52.21         -4.627         -7.787          37.24          90.42
    0.7115              -28.64           15.7          73.22           38.4         0.5924          1.992          52.18          -4.58          -7.76          37.24          90.44
     0.751              -28.65          15.71          73.18           38.4         0.5893            2.0          52.15         -4.528          -7.73          37.25          90.45
    0.7905              -28.65          15.72          73.15          38.41         0.5859          2.008          52.11         -4.472         -7.697          37.25          90.47
      0.83              -28.65          15.73           73.1          38.42         0.5822          2.017          52.07         -4.409          -7.66          37.25           90.5
    0.8696              -28.65          15.74          73.06          38.43          0.578          2.028          52.03          -4.34          -7.62          37.25          90.52
    0.9091              -28.65          15.76          73.01          38.43         0.5735          2.039          51.98         -4.264         -7.576          37.26          90.55
    0.9486              -28.65          15.78          72.95          38.44         0.5684          2.052          51.93         -4.179         -7.527          37.26          90.58
    0.9881              -28.66          15.79          72.89          38.46         0.5628          2.066          51.87         -4.085         -7.472          37.26          90.61
     1.028              -28.66          15.82          72.82          38.47         0.5564          2.081           51.8         -3.979          -7.41          37.27          90.65
